<mxfile host="Electron" modified="2024-04-15T01:31:20.533Z" agent="Mozilla/5.0 (Windows NT 10.0; Win64; x64) AppleWebKit/537.36 (KHTML, like Gecko) draw.io/24.1.0 Chrome/120.0.6099.109 Electron/28.1.0 Safari/537.36" etag="DZiQDchxdAbVAAdfQIkY" version="24.1.0" type="device" pages="3">
  <diagram id="i1ACrBywy2Pd3KEJN3nK" name="flux logique">
    <mxGraphModel dx="2261" dy="2013" grid="1" gridSize="10" guides="1" tooltips="1" connect="1" arrows="1" fold="1" page="1" pageScale="1" pageWidth="827" pageHeight="1169" math="0" shadow="0">
      <root>
        <mxCell id="0" />
        <mxCell id="1" parent="0" />
        <mxCell id="f6J1kx-qtBaKe6uN9IIR-1" value="" style="rounded=0;html=1;jettySize=auto;orthogonalLoop=1;fontSize=15;endArrow=block;endFill=0;endSize=8;strokeWidth=1;shadow=0;labelBackgroundColor=none;edgeStyle=orthogonalEdgeStyle;" parent="1" source="f6J1kx-qtBaKe6uN9IIR-21" target="f6J1kx-qtBaKe6uN9IIR-5" edge="1">
          <mxGeometry relative="1" as="geometry" />
        </mxCell>
        <mxCell id="f6J1kx-qtBaKe6uN9IIR-2" value="&lt;font style=&quot;font-size: 15px;&quot;&gt;Affichage de la Carte&lt;/font&gt;&lt;div style=&quot;font-size: 15px;&quot;&gt;&lt;font style=&quot;font-size: 15px;&quot;&gt;&lt;br style=&quot;font-size: 15px;&quot;&gt;&lt;/font&gt;&lt;/div&gt;" style="rounded=1;whiteSpace=wrap;html=1;fontSize=15;glass=0;strokeWidth=1;shadow=0;" parent="1" vertex="1">
          <mxGeometry x="370" y="-140" width="140" height="50" as="geometry" />
        </mxCell>
        <mxCell id="f6J1kx-qtBaKe6uN9IIR-3" value="Yes" style="rounded=0;html=1;jettySize=auto;orthogonalLoop=1;fontSize=15;endArrow=block;endFill=0;endSize=8;strokeWidth=1;shadow=0;labelBackgroundColor=none;edgeStyle=orthogonalEdgeStyle;" parent="1" source="f6J1kx-qtBaKe6uN9IIR-5" target="f6J1kx-qtBaKe6uN9IIR-9" edge="1">
          <mxGeometry y="20" relative="1" as="geometry">
            <mxPoint as="offset" />
          </mxGeometry>
        </mxCell>
        <mxCell id="f6J1kx-qtBaKe6uN9IIR-4" value="No" style="edgeStyle=orthogonalEdgeStyle;rounded=0;html=1;jettySize=auto;orthogonalLoop=1;fontSize=15;endArrow=block;endFill=0;endSize=8;strokeWidth=1;shadow=0;labelBackgroundColor=none;" parent="1" source="f6J1kx-qtBaKe6uN9IIR-5" target="f6J1kx-qtBaKe6uN9IIR-6" edge="1">
          <mxGeometry y="10" relative="1" as="geometry">
            <mxPoint as="offset" />
            <Array as="points">
              <mxPoint x="440" y="280" />
            </Array>
          </mxGeometry>
        </mxCell>
        <mxCell id="f6J1kx-qtBaKe6uN9IIR-5" value="&lt;strong style=&quot;font-size: 15px;&quot;&gt;Validation du fichier GPX&lt;/strong&gt;" style="rhombus;whiteSpace=wrap;html=1;shadow=0;fontFamily=Helvetica;fontSize=15;align=center;strokeWidth=1;spacing=6;spacingTop=-4;" parent="1" vertex="1">
          <mxGeometry x="340" y="110" width="200" height="130" as="geometry" />
        </mxCell>
        <mxCell id="f6J1kx-qtBaKe6uN9IIR-19" style="edgeStyle=orthogonalEdgeStyle;rounded=0;orthogonalLoop=1;jettySize=auto;html=1;exitX=0.5;exitY=1;exitDx=0;exitDy=0;fontSize=15;" parent="1" source="f6J1kx-qtBaKe6uN9IIR-20" target="f6J1kx-qtBaKe6uN9IIR-13" edge="1">
          <mxGeometry relative="1" as="geometry">
            <Array as="points" />
          </mxGeometry>
        </mxCell>
        <mxCell id="rBJwGntSCLFOpuWQ98ki-2" style="edgeStyle=orthogonalEdgeStyle;rounded=0;orthogonalLoop=1;jettySize=auto;html=1;exitX=1;exitY=0.5;exitDx=0;exitDy=0;fontSize=15;" parent="1" edge="1">
          <mxGeometry relative="1" as="geometry">
            <mxPoint x="560" as="targetPoint" />
            <mxPoint x="775" y="360" as="sourcePoint" />
            <Array as="points">
              <mxPoint x="900" y="360" />
              <mxPoint x="900" />
            </Array>
          </mxGeometry>
        </mxCell>
        <mxCell id="f6J1kx-qtBaKe6uN9IIR-6" value="Affiche un message d&#39;erreur&amp;nbsp;" style="rounded=1;whiteSpace=wrap;html=1;fontSize=15;glass=0;strokeWidth=1;shadow=0;" parent="1" vertex="1">
          <mxGeometry x="630" y="310" width="140" height="100" as="geometry" />
        </mxCell>
        <mxCell id="f6J1kx-qtBaKe6uN9IIR-7" value="No" style="rounded=0;html=1;jettySize=auto;orthogonalLoop=1;fontSize=15;endArrow=block;endFill=0;endSize=8;strokeWidth=1;shadow=0;labelBackgroundColor=none;edgeStyle=orthogonalEdgeStyle;" parent="1" source="f6J1kx-qtBaKe6uN9IIR-9" target="f6J1kx-qtBaKe6uN9IIR-10" edge="1">
          <mxGeometry x="0.331" y="20" relative="1" as="geometry">
            <mxPoint as="offset" />
          </mxGeometry>
        </mxCell>
        <mxCell id="f6J1kx-qtBaKe6uN9IIR-8" value="Yes" style="edgeStyle=orthogonalEdgeStyle;rounded=0;html=1;jettySize=auto;orthogonalLoop=1;fontSize=15;endArrow=block;endFill=0;endSize=8;strokeWidth=1;shadow=0;labelBackgroundColor=none;" parent="1" source="f6J1kx-qtBaKe6uN9IIR-9" target="rBJwGntSCLFOpuWQ98ki-7" edge="1">
          <mxGeometry y="10" relative="1" as="geometry">
            <mxPoint as="offset" />
            <mxPoint x="35" y="480" as="targetPoint" />
          </mxGeometry>
        </mxCell>
        <mxCell id="f6J1kx-qtBaKe6uN9IIR-9" value="&lt;strong style=&quot;font-size: 15px;&quot;&gt;Enregistrement du fichier GPX&lt;br style=&quot;font-size: 15px;&quot;&gt;&lt;/strong&gt;dans la base de données&lt;strong style=&quot;font-size: 15px;&quot;&gt;&lt;br style=&quot;font-size: 15px;&quot;&gt;&lt;/strong&gt;" style="rhombus;whiteSpace=wrap;html=1;shadow=0;fontFamily=Helvetica;fontSize=15;align=center;strokeWidth=1;spacing=6;spacingTop=-4;" parent="1" vertex="1">
          <mxGeometry x="150" y="280" width="210" height="150" as="geometry" />
        </mxCell>
        <mxCell id="rBJwGntSCLFOpuWQ98ki-3" style="edgeStyle=orthogonalEdgeStyle;rounded=0;orthogonalLoop=1;jettySize=auto;html=1;exitX=1;exitY=0.5;exitDx=0;exitDy=0;fontSize=15;" parent="1" source="f6J1kx-qtBaKe6uN9IIR-10" edge="1">
          <mxGeometry relative="1" as="geometry">
            <mxPoint x="550" as="targetPoint" />
            <mxPoint x="580" y="475" as="sourcePoint" />
            <Array as="points">
              <mxPoint x="580" y="535" />
              <mxPoint x="580" y="540" />
              <mxPoint x="901" y="540" />
              <mxPoint x="901" />
            </Array>
          </mxGeometry>
        </mxCell>
        <mxCell id="f6J1kx-qtBaKe6uN9IIR-10" value="&lt;font style=&quot;font-size: 15px;&quot;&gt;retourne code err 500&lt;br style=&quot;font-size: 15px;&quot;&gt;si un probleme systeme survient au back-end&lt;/font&gt;" style="rounded=1;whiteSpace=wrap;html=1;fontSize=15;glass=0;strokeWidth=1;shadow=0;" parent="1" vertex="1">
          <mxGeometry x="440" y="490" width="150" height="90" as="geometry" />
        </mxCell>
        <mxCell id="f6J1kx-qtBaKe6uN9IIR-13" value="" style="ellipse;whiteSpace=wrap;html=1;aspect=fixed;fontSize=15;" parent="1" vertex="1">
          <mxGeometry x="-7.5" y="1340" width="80" height="80" as="geometry" />
        </mxCell>
        <mxCell id="f6J1kx-qtBaKe6uN9IIR-16" style="edgeStyle=orthogonalEdgeStyle;rounded=0;orthogonalLoop=1;jettySize=auto;html=1;fontSize=15;" parent="1" source="f6J1kx-qtBaKe6uN9IIR-14" target="f6J1kx-qtBaKe6uN9IIR-2" edge="1">
          <mxGeometry relative="1" as="geometry" />
        </mxCell>
        <mxCell id="f6J1kx-qtBaKe6uN9IIR-14" value="" style="ellipse;whiteSpace=wrap;html=1;aspect=fixed;fontSize=15;" parent="1" vertex="1">
          <mxGeometry x="400" y="-250" width="80" height="80" as="geometry" />
        </mxCell>
        <mxCell id="f6J1kx-qtBaKe6uN9IIR-20" value="&lt;strong style=&quot;font-size: 15px;&quot;&gt;Interaction de l&#39;utilisateur avec la carte&lt;/strong&gt;" style="rounded=0;whiteSpace=wrap;html=1;fontSize=15;" parent="1" vertex="1">
          <mxGeometry x="-27.5" y="1210" width="120" height="60" as="geometry" />
        </mxCell>
        <mxCell id="rBJwGntSCLFOpuWQ98ki-12" style="edgeStyle=orthogonalEdgeStyle;rounded=0;orthogonalLoop=1;jettySize=auto;html=1;fontSize=15;" parent="1" source="rBJwGntSCLFOpuWQ98ki-6" target="rBJwGntSCLFOpuWQ98ki-8" edge="1">
          <mxGeometry relative="1" as="geometry" />
        </mxCell>
        <mxCell id="rBJwGntSCLFOpuWQ98ki-13" style="edgeStyle=orthogonalEdgeStyle;rounded=0;orthogonalLoop=1;jettySize=auto;html=1;fontSize=15;" parent="1" source="rBJwGntSCLFOpuWQ98ki-6" target="f6J1kx-qtBaKe6uN9IIR-10" edge="1">
          <mxGeometry relative="1" as="geometry" />
        </mxCell>
        <mxCell id="rBJwGntSCLFOpuWQ98ki-6" value="&lt;strong style=&quot;font-size: 15px;&quot;&gt;Initialisation de la carte Leaflet&lt;/strong&gt;&lt;strong style=&quot;font-size: 15px;&quot;&gt;&lt;br style=&quot;font-size: 15px;&quot;&gt;&lt;/strong&gt;" style="rhombus;whiteSpace=wrap;html=1;shadow=0;fontFamily=Helvetica;fontSize=15;align=center;strokeWidth=1;spacing=6;spacingTop=-4;" parent="1" vertex="1">
          <mxGeometry x="-60" y="650" width="185" height="120" as="geometry" />
        </mxCell>
        <mxCell id="rBJwGntSCLFOpuWQ98ki-10" style="edgeStyle=orthogonalEdgeStyle;rounded=0;orthogonalLoop=1;jettySize=auto;html=1;entryX=0;entryY=0.5;entryDx=0;entryDy=0;fontSize=15;" parent="1" source="rBJwGntSCLFOpuWQ98ki-7" target="f6J1kx-qtBaKe6uN9IIR-10" edge="1">
          <mxGeometry relative="1" as="geometry" />
        </mxCell>
        <mxCell id="rBJwGntSCLFOpuWQ98ki-11" style="edgeStyle=orthogonalEdgeStyle;rounded=0;orthogonalLoop=1;jettySize=auto;html=1;fontSize=15;" parent="1" source="rBJwGntSCLFOpuWQ98ki-7" target="rBJwGntSCLFOpuWQ98ki-6" edge="1">
          <mxGeometry relative="1" as="geometry" />
        </mxCell>
        <mxCell id="rBJwGntSCLFOpuWQ98ki-7" value="&lt;span style=&quot;font-size: 15px;&quot;&gt;serveur redirige l&#39;utilisateur vers la page des activités&lt;/span&gt;&lt;strong style=&quot;font-size: 15px;&quot;&gt;&lt;br style=&quot;font-size: 15px;&quot;&gt;&lt;/strong&gt;" style="rhombus;whiteSpace=wrap;html=1;shadow=0;fontFamily=Helvetica;fontSize=15;align=center;strokeWidth=1;spacing=6;spacingTop=-4;" parent="1" vertex="1">
          <mxGeometry x="-52.5" y="460" width="170" height="150" as="geometry" />
        </mxCell>
        <mxCell id="rBJwGntSCLFOpuWQ98ki-14" style="edgeStyle=orthogonalEdgeStyle;rounded=0;orthogonalLoop=1;jettySize=auto;html=1;entryX=0.5;entryY=1;entryDx=0;entryDy=0;fontSize=15;" parent="1" source="rBJwGntSCLFOpuWQ98ki-8" target="f6J1kx-qtBaKe6uN9IIR-10" edge="1">
          <mxGeometry relative="1" as="geometry" />
        </mxCell>
        <mxCell id="rBJwGntSCLFOpuWQ98ki-15" style="edgeStyle=orthogonalEdgeStyle;rounded=0;orthogonalLoop=1;jettySize=auto;html=1;fontSize=15;" parent="1" source="rBJwGntSCLFOpuWQ98ki-8" target="rBJwGntSCLFOpuWQ98ki-9" edge="1">
          <mxGeometry relative="1" as="geometry" />
        </mxCell>
        <mxCell id="rBJwGntSCLFOpuWQ98ki-8" value="&lt;strong style=&quot;font-size: 15px;&quot;&gt;Dessin du parcours sur la carte&lt;/strong&gt;&lt;strong style=&quot;font-size: 15px;&quot;&gt;&lt;br style=&quot;font-size: 15px;&quot;&gt;&lt;/strong&gt;" style="rhombus;whiteSpace=wrap;html=1;shadow=0;fontFamily=Helvetica;fontSize=15;align=center;strokeWidth=1;spacing=6;spacingTop=-4;" parent="1" vertex="1">
          <mxGeometry x="-60" y="830" width="185" height="110" as="geometry" />
        </mxCell>
        <mxCell id="rBJwGntSCLFOpuWQ98ki-16" style="edgeStyle=orthogonalEdgeStyle;rounded=0;orthogonalLoop=1;jettySize=auto;html=1;fontSize=15;" parent="1" source="rBJwGntSCLFOpuWQ98ki-9" target="f6J1kx-qtBaKe6uN9IIR-10" edge="1">
          <mxGeometry relative="1" as="geometry" />
        </mxCell>
        <mxCell id="rBJwGntSCLFOpuWQ98ki-17" style="edgeStyle=orthogonalEdgeStyle;rounded=0;orthogonalLoop=1;jettySize=auto;html=1;fontSize=15;" parent="1" source="rBJwGntSCLFOpuWQ98ki-9" target="f6J1kx-qtBaKe6uN9IIR-20" edge="1">
          <mxGeometry relative="1" as="geometry" />
        </mxCell>
        <mxCell id="rBJwGntSCLFOpuWQ98ki-9" value="&lt;strong style=&quot;font-size: 15px;&quot;&gt;Identification des points de départ et d&#39;arrivée&lt;/strong&gt;&lt;strong style=&quot;font-size: 15px;&quot;&gt;&lt;br style=&quot;font-size: 15px;&quot;&gt;&lt;/strong&gt;" style="rhombus;whiteSpace=wrap;html=1;shadow=0;fontFamily=Helvetica;fontSize=15;align=center;strokeWidth=1;spacing=6;spacingTop=-4;" parent="1" vertex="1">
          <mxGeometry x="-52.5" y="1010" width="170" height="110" as="geometry" />
        </mxCell>
        <mxCell id="rBJwGntSCLFOpuWQ98ki-18" value="&lt;font style=&quot;font-size: 15px;&quot;&gt;Yes&lt;/font&gt;" style="text;strokeColor=none;align=center;fillColor=none;html=1;verticalAlign=middle;whiteSpace=wrap;rounded=0;fontSize=15;" parent="1" vertex="1">
          <mxGeometry x="-30" y="610" width="60" height="30" as="geometry" />
        </mxCell>
        <mxCell id="rBJwGntSCLFOpuWQ98ki-19" value="&lt;font style=&quot;font-size: 15px;&quot;&gt;Yes&lt;/font&gt;" style="text;strokeColor=none;align=center;fillColor=none;html=1;verticalAlign=middle;whiteSpace=wrap;rounded=0;fontSize=15;" parent="1" vertex="1">
          <mxGeometry x="-30" y="780" width="60" height="30" as="geometry" />
        </mxCell>
        <mxCell id="rBJwGntSCLFOpuWQ98ki-20" value="&lt;font style=&quot;font-size: 15px;&quot;&gt;Yes&lt;/font&gt;" style="text;strokeColor=none;align=center;fillColor=none;html=1;verticalAlign=middle;whiteSpace=wrap;rounded=0;fontSize=15;" parent="1" vertex="1">
          <mxGeometry x="-40" y="960" width="60" height="30" as="geometry" />
        </mxCell>
        <mxCell id="rBJwGntSCLFOpuWQ98ki-21" value="&lt;font style=&quot;font-size: 15px;&quot;&gt;Yes&lt;/font&gt;" style="text;strokeColor=none;align=center;fillColor=none;html=1;verticalAlign=middle;whiteSpace=wrap;rounded=0;fontSize=15;" parent="1" vertex="1">
          <mxGeometry x="-40" y="1120" width="60" height="30" as="geometry" />
        </mxCell>
        <mxCell id="rBJwGntSCLFOpuWQ98ki-23" value="&lt;font style=&quot;font-size: 15px;&quot;&gt;No&lt;/font&gt;" style="text;strokeColor=none;align=center;fillColor=none;html=1;verticalAlign=middle;whiteSpace=wrap;rounded=0;fontSize=15;" parent="1" vertex="1">
          <mxGeometry x="240" y="1030" width="60" height="30" as="geometry" />
        </mxCell>
        <mxCell id="rBJwGntSCLFOpuWQ98ki-24" value="&lt;font style=&quot;font-size: 15px;&quot;&gt;No&lt;/font&gt;" style="text;strokeColor=none;align=center;fillColor=none;html=1;verticalAlign=middle;whiteSpace=wrap;rounded=0;fontSize=15;" parent="1" vertex="1">
          <mxGeometry x="240" y="850" width="60" height="30" as="geometry" />
        </mxCell>
        <mxCell id="rBJwGntSCLFOpuWQ98ki-25" value="&lt;font style=&quot;font-size: 15px;&quot;&gt;No&lt;/font&gt;" style="text;strokeColor=none;align=center;fillColor=none;html=1;verticalAlign=middle;whiteSpace=wrap;rounded=0;fontSize=15;" parent="1" vertex="1">
          <mxGeometry x="230" y="670" width="60" height="30" as="geometry" />
        </mxCell>
        <mxCell id="rBJwGntSCLFOpuWQ98ki-26" value="&lt;font style=&quot;font-size: 15px;&quot;&gt;No&lt;/font&gt;" style="text;strokeColor=none;align=center;fillColor=none;html=1;verticalAlign=middle;whiteSpace=wrap;rounded=0;fontSize=15;" parent="1" vertex="1">
          <mxGeometry x="225" y="500" width="60" height="30" as="geometry" />
        </mxCell>
        <mxCell id="rBJwGntSCLFOpuWQ98ki-29" value="" style="rounded=0;html=1;jettySize=auto;orthogonalLoop=1;fontSize=15;endArrow=block;endFill=0;endSize=8;strokeWidth=1;shadow=0;labelBackgroundColor=none;edgeStyle=orthogonalEdgeStyle;" parent="1" source="f6J1kx-qtBaKe6uN9IIR-2" target="f6J1kx-qtBaKe6uN9IIR-21" edge="1">
          <mxGeometry relative="1" as="geometry">
            <mxPoint x="440" y="-90" as="sourcePoint" />
            <mxPoint x="440" y="130" as="targetPoint" />
          </mxGeometry>
        </mxCell>
        <mxCell id="f6J1kx-qtBaKe6uN9IIR-21" value="&lt;strong style=&quot;font-size: 15px;&quot;&gt;Soumission de l&#39;activiter par formulaire GPX&lt;/strong&gt;" style="rounded=0;whiteSpace=wrap;html=1;fontSize=15;" parent="1" vertex="1">
          <mxGeometry x="335" y="-50" width="210" height="110" as="geometry" />
        </mxCell>
      </root>
    </mxGraphModel>
  </diagram>
  <diagram id="v27XW-EMthxNgn7mn4yq" name="modele de donnee">
    <mxGraphModel dx="1434" dy="844" grid="1" gridSize="10" guides="1" tooltips="1" connect="1" arrows="1" fold="1" page="1" pageScale="1" pageWidth="827" pageHeight="1169" math="0" shadow="0">
      <root>
        <mxCell id="0" />
        <mxCell id="1" parent="0" />
        <mxCell id="Eio3FYPdLac3Rj208qRC-1" value="Activity      " style="swimlane;fontStyle=0;align=center;verticalAlign=top;childLayout=stackLayout;horizontal=1;startSize=26;horizontalStack=0;resizeParent=1;resizeLast=0;collapsible=1;marginBottom=0;rounded=0;shadow=0;strokeWidth=1;" parent="1" vertex="1">
          <mxGeometry x="440" y="130" width="250" height="290" as="geometry">
            <mxRectangle x="550" y="140" width="160" height="26" as="alternateBounds" />
          </mxGeometry>
        </mxCell>
        <mxCell id="Eio3FYPdLac3Rj208qRC-2" value="id" style="text;align=left;verticalAlign=top;spacingLeft=4;spacingRight=4;overflow=hidden;rotatable=0;points=[[0,0.5],[1,0.5]];portConstraint=eastwest;" parent="Eio3FYPdLac3Rj208qRC-1" vertex="1">
          <mxGeometry y="26" width="250" height="24" as="geometry" />
        </mxCell>
        <mxCell id="Eio3FYPdLac3Rj208qRC-3" value="userId" style="text;align=left;verticalAlign=top;spacingLeft=4;spacingRight=4;overflow=hidden;rotatable=0;points=[[0,0.5],[1,0.5]];portConstraint=eastwest;rounded=0;shadow=0;html=0;" parent="Eio3FYPdLac3Rj208qRC-1" vertex="1">
          <mxGeometry y="50" width="250" height="26" as="geometry" />
        </mxCell>
        <mxCell id="Eio3FYPdLac3Rj208qRC-4" value="name" style="text;align=left;verticalAlign=top;spacingLeft=4;spacingRight=4;overflow=hidden;rotatable=0;points=[[0,0.5],[1,0.5]];portConstraint=eastwest;rounded=0;shadow=0;html=0;" parent="Eio3FYPdLac3Rj208qRC-1" vertex="1">
          <mxGeometry y="76" width="250" height="26" as="geometry" />
        </mxCell>
        <mxCell id="Eio3FYPdLac3Rj208qRC-5" value="city" style="text;align=left;verticalAlign=top;spacingLeft=4;spacingRight=4;overflow=hidden;rotatable=0;points=[[0,0.5],[1,0.5]];portConstraint=eastwest;rounded=0;shadow=0;html=0;" parent="Eio3FYPdLac3Rj208qRC-1" vertex="1">
          <mxGeometry y="102" width="250" height="26" as="geometry" />
        </mxCell>
        <mxCell id="Eio3FYPdLac3Rj208qRC-6" value="type" style="text;align=left;verticalAlign=top;spacingLeft=4;spacingRight=4;overflow=hidden;rotatable=0;points=[[0,0.5],[1,0.5]];portConstraint=eastwest;rounded=0;shadow=0;html=0;" parent="Eio3FYPdLac3Rj208qRC-1" vertex="1">
          <mxGeometry y="128" width="250" height="26" as="geometry" />
        </mxCell>
        <mxCell id="Eio3FYPdLac3Rj208qRC-7" value="date" style="text;align=left;verticalAlign=top;spacingLeft=4;spacingRight=4;overflow=hidden;rotatable=0;points=[[0,0.5],[1,0.5]];portConstraint=eastwest;" parent="Eio3FYPdLac3Rj208qRC-1" vertex="1">
          <mxGeometry y="154" width="250" height="26" as="geometry" />
        </mxCell>
        <mxCell id="Eio3FYPdLac3Rj208qRC-8" value="durationTotal" style="text;align=left;verticalAlign=top;spacingLeft=4;spacingRight=4;overflow=hidden;rotatable=0;points=[[0,0.5],[1,0.5]];portConstraint=eastwest;" parent="Eio3FYPdLac3Rj208qRC-1" vertex="1">
          <mxGeometry y="180" width="250" height="26" as="geometry" />
        </mxCell>
        <mxCell id="Eio3FYPdLac3Rj208qRC-9" value="distanceTotal" style="text;align=left;verticalAlign=top;spacingLeft=4;spacingRight=4;overflow=hidden;rotatable=0;points=[[0,0.5],[1,0.5]];portConstraint=eastwest;" parent="Eio3FYPdLac3Rj208qRC-1" vertex="1">
          <mxGeometry y="206" width="250" height="26" as="geometry" />
        </mxCell>
        <mxCell id="Eio3FYPdLac3Rj208qRC-10" value="comment" style="text;align=left;verticalAlign=top;spacingLeft=4;spacingRight=4;overflow=hidden;rotatable=0;points=[[0,0.5],[1,0.5]];portConstraint=eastwest;" parent="Eio3FYPdLac3Rj208qRC-1" vertex="1">
          <mxGeometry y="232" width="250" height="26" as="geometry" />
        </mxCell>
        <mxCell id="Eio3FYPdLac3Rj208qRC-11" value="segments" style="text;align=left;verticalAlign=top;spacingLeft=4;spacingRight=4;overflow=hidden;rotatable=0;points=[[0,0.5],[1,0.5]];portConstraint=eastwest;" parent="Eio3FYPdLac3Rj208qRC-1" vertex="1">
          <mxGeometry y="258" width="250" height="26" as="geometry" />
        </mxCell>
        <mxCell id="QdHSoZASMkxiS02J_8Xx-1" value="User" style="swimlane;fontStyle=0;align=center;verticalAlign=top;childLayout=stackLayout;horizontal=1;startSize=26;horizontalStack=0;resizeParent=1;resizeLast=0;collapsible=1;marginBottom=0;rounded=0;shadow=0;strokeWidth=1;" parent="1" vertex="1">
          <mxGeometry x="50" y="130" width="180" height="90" as="geometry">
            <mxRectangle x="550" y="140" width="160" height="26" as="alternateBounds" />
          </mxGeometry>
        </mxCell>
        <mxCell id="QdHSoZASMkxiS02J_8Xx-3" value="userId" style="text;align=left;verticalAlign=top;spacingLeft=4;spacingRight=4;overflow=hidden;rotatable=0;points=[[0,0.5],[1,0.5]];portConstraint=eastwest;rounded=0;shadow=0;html=0;" parent="QdHSoZASMkxiS02J_8Xx-1" vertex="1">
          <mxGeometry y="26" width="180" height="26" as="geometry" />
        </mxCell>
        <mxCell id="QdHSoZASMkxiS02J_8Xx-2" value="token" style="text;align=left;verticalAlign=top;spacingLeft=4;spacingRight=4;overflow=hidden;rotatable=0;points=[[0,0.5],[1,0.5]];portConstraint=eastwest;" parent="QdHSoZASMkxiS02J_8Xx-1" vertex="1">
          <mxGeometry y="52" width="180" height="24" as="geometry" />
        </mxCell>
        <mxCell id="QdHSoZASMkxiS02J_8Xx-13" value="&lt;font style=&quot;font-size: 20px;&quot;&gt;Modele de donnee&lt;/font&gt;" style="text;strokeColor=none;align=center;fillColor=none;html=1;verticalAlign=middle;whiteSpace=wrap;rounded=0;" parent="1" vertex="1">
          <mxGeometry x="220" y="10" width="370" height="60" as="geometry" />
        </mxCell>
        <mxCell id="ivmKL-tHWaWIymur9N4N-1" style="edgeStyle=orthogonalEdgeStyle;rounded=0;orthogonalLoop=1;jettySize=auto;html=1;entryX=1;entryY=0.5;entryDx=0;entryDy=0;" parent="1" source="Eio3FYPdLac3Rj208qRC-7" target="QdHSoZASMkxiS02J_8Xx-3" edge="1">
          <mxGeometry relative="1" as="geometry" />
        </mxCell>
      </root>
    </mxGraphModel>
  </diagram>
  <diagram id="atqr6acKGb3iI7-QaO9S" name="diagramme de classe">
    <mxGraphModel dx="1434" dy="844" grid="1" gridSize="10" guides="1" tooltips="1" connect="1" arrows="1" fold="1" page="1" pageScale="1" pageWidth="827" pageHeight="1169" math="0" shadow="0">
      <root>
        <mxCell id="0" />
        <mxCell id="1" parent="0" />
        <mxCell id="_y_7mwzvJ3z7avcLOllt-1" value="&lt;font style=&quot;font-size: 20px;&quot;&gt;Diagramme de classe&lt;/font&gt;" style="text;strokeColor=none;align=center;fillColor=none;html=1;verticalAlign=middle;whiteSpace=wrap;rounded=0;" parent="1" vertex="1">
          <mxGeometry x="520" y="40" width="390" height="60" as="geometry" />
        </mxCell>
        <mxCell id="YMD6zo-OpProe21ODSic-1" value="Utilisateur         " style="swimlane;fontStyle=0;align=center;verticalAlign=top;childLayout=stackLayout;horizontal=1;startSize=26;horizontalStack=0;resizeParent=1;resizeLast=0;collapsible=1;marginBottom=0;rounded=0;shadow=0;strokeWidth=1;" parent="1" vertex="1">
          <mxGeometry y="120" width="250" height="90" as="geometry">
            <mxRectangle x="550" y="140" width="160" height="26" as="alternateBounds" />
          </mxGeometry>
        </mxCell>
        <mxCell id="YMD6zo-OpProe21ODSic-10" value="user_id: int                 " style="text;align=left;verticalAlign=top;spacingLeft=4;spacingRight=4;overflow=hidden;rotatable=0;points=[[0,0.5],[1,0.5]];portConstraint=eastwest;" parent="YMD6zo-OpProe21ODSic-1" vertex="1">
          <mxGeometry y="26" width="250" height="26" as="geometry" />
        </mxCell>
        <mxCell id="YMD6zo-OpProe21ODSic-11" value="token: string                " style="text;align=left;verticalAlign=top;spacingLeft=4;spacingRight=4;overflow=hidden;rotatable=0;points=[[0,0.5],[1,0.5]];portConstraint=eastwest;" parent="YMD6zo-OpProe21ODSic-1" vertex="1">
          <mxGeometry y="52" width="250" height="26" as="geometry" />
        </mxCell>
        <mxCell id="YMD6zo-OpProe21ODSic-82" style="edgeStyle=orthogonalEdgeStyle;rounded=0;orthogonalLoop=1;jettySize=auto;html=1;entryX=1;entryY=0.5;entryDx=0;entryDy=0;exitX=-0.016;exitY=0.808;exitDx=0;exitDy=0;exitPerimeter=0;" parent="1" source="UNYNzR9SmC4CTMahktkJ-10" target="YMD6zo-OpProe21ODSic-38" edge="1">
          <mxGeometry relative="1" as="geometry">
            <mxPoint x="670" y="165" as="targetPoint" />
          </mxGeometry>
        </mxCell>
        <mxCell id="YMD6zo-OpProe21ODSic-34" value="Activité" style="swimlane;fontStyle=0;align=center;verticalAlign=top;childLayout=stackLayout;horizontal=1;startSize=26;horizontalStack=0;resizeParent=1;resizeLast=0;collapsible=1;marginBottom=0;rounded=0;shadow=0;strokeWidth=1;" parent="1" vertex="1">
          <mxGeometry x="340" y="170" width="250" height="290" as="geometry">
            <mxRectangle x="550" y="140" width="160" height="26" as="alternateBounds" />
          </mxGeometry>
        </mxCell>
        <mxCell id="YMD6zo-OpProe21ODSic-35" value="activity_id: int" style="text;align=left;verticalAlign=top;spacingLeft=4;spacingRight=4;overflow=hidden;rotatable=0;points=[[0,0.5],[1,0.5]];portConstraint=eastwest;" parent="YMD6zo-OpProe21ODSic-34" vertex="1">
          <mxGeometry y="26" width="250" height="24" as="geometry" />
        </mxCell>
        <mxCell id="YMD6zo-OpProe21ODSic-36" value="user_id: int                 " style="text;align=left;verticalAlign=top;spacingLeft=4;spacingRight=4;overflow=hidden;rotatable=0;points=[[0,0.5],[1,0.5]];portConstraint=eastwest;rounded=0;shadow=0;html=0;" parent="YMD6zo-OpProe21ODSic-34" vertex="1">
          <mxGeometry y="50" width="250" height="30" as="geometry" />
        </mxCell>
        <mxCell id="YMD6zo-OpProe21ODSic-37" value="name: string                " style="text;align=left;verticalAlign=top;spacingLeft=4;spacingRight=4;overflow=hidden;rotatable=0;points=[[0,0.5],[1,0.5]];portConstraint=eastwest;rounded=0;shadow=0;html=0;" parent="YMD6zo-OpProe21ODSic-34" vertex="1">
          <mxGeometry y="80" width="250" height="26" as="geometry" />
        </mxCell>
        <mxCell id="YMD6zo-OpProe21ODSic-38" value="city: string    " style="text;align=left;verticalAlign=top;spacingLeft=4;spacingRight=4;overflow=hidden;rotatable=0;points=[[0,0.5],[1,0.5]];portConstraint=eastwest;rounded=0;shadow=0;html=0;" parent="YMD6zo-OpProe21ODSic-34" vertex="1">
          <mxGeometry y="106" width="250" height="26" as="geometry" />
        </mxCell>
        <mxCell id="YMD6zo-OpProe21ODSic-39" value="type: enum (Running, Biking, Walking)" style="text;align=left;verticalAlign=top;spacingLeft=4;spacingRight=4;overflow=hidden;rotatable=0;points=[[0,0.5],[1,0.5]];portConstraint=eastwest;rounded=0;shadow=0;html=0;" parent="YMD6zo-OpProe21ODSic-34" vertex="1">
          <mxGeometry y="132" width="250" height="26" as="geometry" />
        </mxCell>
        <mxCell id="YMD6zo-OpProe21ODSic-40" value="date: datetime  " style="text;align=left;verticalAlign=top;spacingLeft=4;spacingRight=4;overflow=hidden;rotatable=0;points=[[0,0.5],[1,0.5]];portConstraint=eastwest;" parent="YMD6zo-OpProe21ODSic-34" vertex="1">
          <mxGeometry y="158" width="250" height="26" as="geometry" />
        </mxCell>
        <mxCell id="YMD6zo-OpProe21ODSic-41" value="durationTotal: double " style="text;align=left;verticalAlign=top;spacingLeft=4;spacingRight=4;overflow=hidden;rotatable=0;points=[[0,0.5],[1,0.5]];portConstraint=eastwest;" parent="YMD6zo-OpProe21ODSic-34" vertex="1">
          <mxGeometry y="184" width="250" height="26" as="geometry" />
        </mxCell>
        <mxCell id="YMD6zo-OpProe21ODSic-42" value="distanceTotal: double " style="text;align=left;verticalAlign=top;spacingLeft=4;spacingRight=4;overflow=hidden;rotatable=0;points=[[0,0.5],[1,0.5]];portConstraint=eastwest;" parent="YMD6zo-OpProe21ODSic-34" vertex="1">
          <mxGeometry y="210" width="250" height="26" as="geometry" />
        </mxCell>
        <mxCell id="YMD6zo-OpProe21ODSic-43" value="comment: string " style="text;align=left;verticalAlign=top;spacingLeft=4;spacingRight=4;overflow=hidden;rotatable=0;points=[[0,0.5],[1,0.5]];portConstraint=eastwest;" parent="YMD6zo-OpProe21ODSic-34" vertex="1">
          <mxGeometry y="236" width="250" height="26" as="geometry" />
        </mxCell>
        <mxCell id="YMD6zo-OpProe21ODSic-44" value="segments: json object" style="text;align=left;verticalAlign=top;spacingLeft=4;spacingRight=4;overflow=hidden;rotatable=0;points=[[0,0.5],[1,0.5]];portConstraint=eastwest;" parent="YMD6zo-OpProe21ODSic-34" vertex="1">
          <mxGeometry y="262" width="250" height="26" as="geometry" />
        </mxCell>
        <mxCell id="C0ik36R6e6XeGvFMZULU-1" style="edgeStyle=orthogonalEdgeStyle;rounded=0;orthogonalLoop=1;jettySize=auto;html=1;" parent="1" source="YMD6zo-OpProe21ODSic-38" target="YMD6zo-OpProe21ODSic-10" edge="1">
          <mxGeometry relative="1" as="geometry" />
        </mxCell>
        <mxCell id="UNYNzR9SmC4CTMahktkJ-1" value="MapComponent" style="swimlane;fontStyle=0;align=center;verticalAlign=top;childLayout=stackLayout;horizontal=1;startSize=26;horizontalStack=0;resizeParent=1;resizeLast=0;collapsible=1;marginBottom=0;rounded=0;shadow=0;strokeWidth=1;" parent="1" vertex="1">
          <mxGeometry x="680" y="130" width="250" height="90" as="geometry">
            <mxRectangle x="550" y="140" width="160" height="26" as="alternateBounds" />
          </mxGeometry>
        </mxCell>
        <mxCell id="UNYNzR9SmC4CTMahktkJ-10" value="map: Leaflet.Map             " style="text;align=left;verticalAlign=top;spacingLeft=4;spacingRight=4;overflow=hidden;rotatable=0;points=[[0,0.5],[1,0.5]];portConstraint=eastwest;" parent="UNYNzR9SmC4CTMahktkJ-1" vertex="1">
          <mxGeometry y="26" width="250" height="26" as="geometry" />
        </mxCell>
        <mxCell id="UNYNzR9SmC4CTMahktkJ-11" value="segments: Segment[]          " style="text;align=left;verticalAlign=top;spacingLeft=4;spacingRight=4;overflow=hidden;rotatable=0;points=[[0,0.5],[1,0.5]];portConstraint=eastwest;" parent="UNYNzR9SmC4CTMahktkJ-1" vertex="1">
          <mxGeometry y="52" width="250" height="26" as="geometry" />
        </mxCell>
        <mxCell id="UNYNzR9SmC4CTMahktkJ-15" value="" style="rounded=0;whiteSpace=wrap;html=1;" parent="1" vertex="1">
          <mxGeometry x="340" y="460" width="250" height="80" as="geometry" />
        </mxCell>
        <mxCell id="UNYNzR9SmC4CTMahktkJ-16" value="modifyActivite(activity_id)" style="text;align=left;verticalAlign=top;spacingLeft=4;spacingRight=4;overflow=hidden;rotatable=0;points=[[0,0.5],[1,0.5]];portConstraint=eastwest;" parent="1" vertex="1">
          <mxGeometry x="350" y="470" width="250" height="26" as="geometry" />
        </mxCell>
        <mxCell id="UNYNzR9SmC4CTMahktkJ-17" value="suppressionActivity(activity_id)" style="text;align=left;verticalAlign=top;spacingLeft=4;spacingRight=4;overflow=hidden;rotatable=0;points=[[0,0.5],[1,0.5]];portConstraint=eastwest;" parent="1" vertex="1">
          <mxGeometry x="350" y="496" width="250" height="26" as="geometry" />
        </mxCell>
        <mxCell id="WHUXHiX9tEQv9fqaMn64-12" value="Segment" style="swimlane;fontStyle=0;align=center;verticalAlign=top;childLayout=stackLayout;horizontal=1;startSize=26;horizontalStack=0;resizeParent=1;resizeLast=0;collapsible=1;marginBottom=0;rounded=0;shadow=0;strokeWidth=1;" parent="1" vertex="1">
          <mxGeometry x="1110" y="130" width="250" height="70" as="geometry">
            <mxRectangle x="550" y="140" width="160" height="26" as="alternateBounds" />
          </mxGeometry>
        </mxCell>
        <mxCell id="WHUXHiX9tEQv9fqaMn64-13" value="trackPoints: TrackPoint[]   " style="text;align=left;verticalAlign=top;spacingLeft=4;spacingRight=4;overflow=hidden;rotatable=0;points=[[0,0.5],[1,0.5]];portConstraint=eastwest;" parent="WHUXHiX9tEQv9fqaMn64-12" vertex="1">
          <mxGeometry y="26" width="250" height="26" as="geometry" />
        </mxCell>
        <mxCell id="WHUXHiX9tEQv9fqaMn64-17" value="TrackPoint" style="swimlane;fontStyle=0;align=center;verticalAlign=top;childLayout=stackLayout;horizontal=1;startSize=26;horizontalStack=0;resizeParent=1;resizeLast=0;collapsible=1;marginBottom=0;rounded=0;shadow=0;strokeWidth=1;" parent="1" vertex="1">
          <mxGeometry x="1090" y="274" width="250" height="120" as="geometry">
            <mxRectangle x="550" y="140" width="160" height="26" as="alternateBounds" />
          </mxGeometry>
        </mxCell>
        <mxCell id="WHUXHiX9tEQv9fqaMn64-18" value="latitude: number" style="text;align=left;verticalAlign=top;spacingLeft=4;spacingRight=4;overflow=hidden;rotatable=0;points=[[0,0.5],[1,0.5]];portConstraint=eastwest;" parent="WHUXHiX9tEQv9fqaMn64-17" vertex="1">
          <mxGeometry y="26" width="250" height="26" as="geometry" />
        </mxCell>
        <mxCell id="WHUXHiX9tEQv9fqaMn64-19" value="longitude: number" style="text;align=left;verticalAlign=top;spacingLeft=4;spacingRight=4;overflow=hidden;rotatable=0;points=[[0,0.5],[1,0.5]];portConstraint=eastwest;" parent="WHUXHiX9tEQv9fqaMn64-17" vertex="1">
          <mxGeometry y="52" width="250" height="26" as="geometry" />
        </mxCell>
        <mxCell id="WHUXHiX9tEQv9fqaMn64-20" value="elevation: number" style="text;align=left;verticalAlign=top;spacingLeft=4;spacingRight=4;overflow=hidden;rotatable=0;points=[[0,0.5],[1,0.5]];portConstraint=eastwest;" parent="WHUXHiX9tEQv9fqaMn64-17" vertex="1">
          <mxGeometry y="78" width="250" height="26" as="geometry" />
        </mxCell>
        <mxCell id="WHUXHiX9tEQv9fqaMn64-27" value="" style="rounded=0;whiteSpace=wrap;html=1;" parent="1" vertex="1">
          <mxGeometry x="680" y="220" width="250" height="80" as="geometry" />
        </mxCell>
        <mxCell id="WHUXHiX9tEQv9fqaMn64-28" value="generatePath(): Path         " style="text;align=left;verticalAlign=top;spacingLeft=4;spacingRight=4;overflow=hidden;rotatable=0;points=[[0,0.5],[1,0.5]];portConstraint=eastwest;" parent="1" vertex="1">
          <mxGeometry x="680" y="227" width="250" height="26" as="geometry" />
        </mxCell>
        <mxCell id="WHUXHiX9tEQv9fqaMn64-29" value="calculateCentroid(): Coordinate " style="text;align=left;verticalAlign=top;spacingLeft=4;spacingRight=4;overflow=hidden;rotatable=0;points=[[0,0.5],[1,0.5]];portConstraint=eastwest;" parent="1" vertex="1">
          <mxGeometry x="680" y="253" width="250" height="26" as="geometry" />
        </mxCell>
        <mxCell id="WHUXHiX9tEQv9fqaMn64-30" value="addMarkers(): void           " style="text;align=left;verticalAlign=top;spacingLeft=4;spacingRight=4;overflow=hidden;rotatable=0;points=[[0,0.5],[1,0.5]];portConstraint=eastwest;" parent="1" vertex="1">
          <mxGeometry x="680" y="274" width="250" height="26" as="geometry" />
        </mxCell>
        <mxCell id="WHUXHiX9tEQv9fqaMn64-55" value="" style="endArrow=none;dashed=1;html=1;rounded=0;entryX=0;entryY=0.5;entryDx=0;entryDy=0;exitX=1;exitY=0.5;exitDx=0;exitDy=0;" parent="1" source="UNYNzR9SmC4CTMahktkJ-10" target="WHUXHiX9tEQv9fqaMn64-13" edge="1">
          <mxGeometry width="50" height="50" relative="1" as="geometry">
            <mxPoint x="620" y="320" as="sourcePoint" />
            <mxPoint x="670" y="270" as="targetPoint" />
            <Array as="points" />
          </mxGeometry>
        </mxCell>
        <mxCell id="WHUXHiX9tEQv9fqaMn64-56" value="" style="endArrow=none;dashed=1;html=1;rounded=0;entryX=0.528;entryY=0.017;entryDx=0;entryDy=0;exitX=0.5;exitY=1;exitDx=0;exitDy=0;entryPerimeter=0;" parent="1" target="WHUXHiX9tEQv9fqaMn64-17" edge="1" source="WHUXHiX9tEQv9fqaMn64-12">
          <mxGeometry width="50" height="50" relative="1" as="geometry">
            <mxPoint x="1150" y="210" as="sourcePoint" />
            <mxPoint x="1260" y="220" as="targetPoint" />
            <Array as="points" />
          </mxGeometry>
        </mxCell>
        <mxCell id="WHUXHiX9tEQv9fqaMn64-58" value="1" style="text;strokeColor=none;align=center;fillColor=none;html=1;verticalAlign=middle;whiteSpace=wrap;rounded=0;" parent="1" vertex="1">
          <mxGeometry x="240" y="170" width="60" height="30" as="geometry" />
        </mxCell>
        <mxCell id="WHUXHiX9tEQv9fqaMn64-59" value="0..*" style="text;strokeColor=none;align=center;fillColor=none;html=1;verticalAlign=middle;whiteSpace=wrap;rounded=0;" parent="1" vertex="1">
          <mxGeometry x="290" y="253" width="60" height="30" as="geometry" />
        </mxCell>
        <mxCell id="WHUXHiX9tEQv9fqaMn64-60" value="1" style="text;strokeColor=none;align=center;fillColor=none;html=1;verticalAlign=middle;whiteSpace=wrap;rounded=0;" parent="1" vertex="1">
          <mxGeometry x="590" y="300" width="60" height="30" as="geometry" />
        </mxCell>
        <mxCell id="WHUXHiX9tEQv9fqaMn64-61" value="0..1" style="text;strokeColor=none;align=center;fillColor=none;html=1;verticalAlign=middle;whiteSpace=wrap;rounded=0;" parent="1" vertex="1">
          <mxGeometry x="620" y="140" width="60" height="30" as="geometry" />
        </mxCell>
        <mxCell id="WHUXHiX9tEQv9fqaMn64-63" value="1" style="text;strokeColor=none;align=center;fillColor=none;html=1;verticalAlign=middle;whiteSpace=wrap;rounded=0;" parent="1" vertex="1">
          <mxGeometry x="480" y="550" width="60" height="30" as="geometry" />
        </mxCell>
        <mxCell id="WHUXHiX9tEQv9fqaMn64-70" value="1" style="text;strokeColor=none;align=center;fillColor=none;html=1;verticalAlign=middle;whiteSpace=wrap;rounded=0;" parent="1" vertex="1">
          <mxGeometry x="1180" y="200" width="60" height="30" as="geometry" />
        </mxCell>
        <mxCell id="WHUXHiX9tEQv9fqaMn64-71" value="&lt;pre&gt;&lt;code class=&quot;!whitespace-pre hljs language-diff&quot;&gt;Composition&lt;/code&gt;&lt;/pre&gt;" style="text;strokeColor=none;align=center;fillColor=none;html=1;verticalAlign=middle;whiteSpace=wrap;rounded=0;" parent="1" vertex="1">
          <mxGeometry x="1130" y="220" width="60" height="30" as="geometry" />
        </mxCell>
        <mxCell id="WHUXHiX9tEQv9fqaMn64-72" value="1" style="text;strokeColor=none;align=center;fillColor=none;html=1;verticalAlign=middle;whiteSpace=wrap;rounded=0;" parent="1" vertex="1">
          <mxGeometry x="1060" y="140" width="60" height="30" as="geometry" />
        </mxCell>
        <mxCell id="WHUXHiX9tEQv9fqaMn64-73" value="1" style="text;strokeColor=none;align=center;fillColor=none;html=1;verticalAlign=middle;whiteSpace=wrap;rounded=0;" parent="1" vertex="1">
          <mxGeometry x="930" y="180" width="60" height="30" as="geometry" />
        </mxCell>
        <mxCell id="WHUXHiX9tEQv9fqaMn64-74" value="1" style="text;strokeColor=none;align=center;fillColor=none;html=1;verticalAlign=middle;whiteSpace=wrap;rounded=0;" parent="1" vertex="1">
          <mxGeometry x="1220" y="245" width="60" height="30" as="geometry" />
        </mxCell>
        <mxCell id="WHUXHiX9tEQv9fqaMn64-76" value="&lt;pre&gt;&lt;code class=&quot;!whitespace-pre hljs language-diff&quot;&gt;Composition&lt;/code&gt;&lt;/pre&gt;" style="text;strokeColor=none;align=center;fillColor=none;html=1;verticalAlign=middle;whiteSpace=wrap;rounded=0;" parent="1" vertex="1">
          <mxGeometry x="990" y="140" width="60" height="30" as="geometry" />
        </mxCell>
        <mxCell id="UCY0Ro1MHnrrkev5bLhR-1" value="Fait par" style="text;strokeColor=none;align=center;fillColor=none;html=1;verticalAlign=middle;whiteSpace=wrap;rounded=0;fontSize=15;" vertex="1" parent="1">
          <mxGeometry x="240" y="240" width="60" height="30" as="geometry" />
        </mxCell>
        <mxCell id="UCY0Ro1MHnrrkev5bLhR-3" value="Affiche map de" style="text;strokeColor=none;align=center;fillColor=none;html=1;verticalAlign=middle;whiteSpace=wrap;rounded=0;fontSize=15;" vertex="1" parent="1">
          <mxGeometry x="590" y="190" width="90" height="70" as="geometry" />
        </mxCell>
      </root>
    </mxGraphModel>
  </diagram>
</mxfile>
